# xmcd
#
# Track frame offsets: 
#        150
#        16423
#        29994
#        42421
#        54329
#        65328
#        77692
#        90358
#        104239
#        116413
#        128339
#        141001
#        153959
#        168948
#        180676
#
# Disc length: 2581 seconds
#
# Revision: 0
# Processed by: cddbd v1.4PL0 Copyright (c) Steve Scherf et al.
# Submitted via: ExactAudioCopy v0.90b4
#
DISCID=bf0a130f
DTITLE=Billie Jo Spears - 
DYEAR=1999
DGENRE=Country
TTITLE0=Blanket on the ground
TTITLE1=Mr Walker its all over
TTITLE2=What i've got in mind
TTITLE3=Misty blue
TTITLE4=If you want me
TTITLE5=Marty Gray
TTITLE6=Stay away from the apple tree
TTITLE7=I'm not easy
TTITLE8=Lonely hearts club
TTITLE9=I've got to go
TTITLE10=57 Chevrolet
TTITLE11=Yesterday
TTITLE12=I will survive
TTITLE13=Rainy days and stormy nights
TTITLE14=What the world needs now is love
EXTD=
EXTT0=
EXTT1=
EXTT2=
EXTT3=
EXTT4=
EXTT5=
EXTT6=
EXTT7=
EXTT8=
EXTT9=
EXTT10=
EXTT11=
EXTT12=
EXTT13=
EXTT14=
PLAYORDER=
